<svg xmlns="http://www.w3.org/2000/svg" viewBox="0 0 200 200" width="100%" height="100%">
  <g fill="none" stroke="#FFFFFF" stroke-width="4" stroke-linecap="round" stroke-linejoin="round">
    
    <path d="M 85,130 L 85,90 L 95,90 L 95,75 L 105,75 L 105,90 L 115,90 L 115,130 Z" fill="#FFFFFF" />
    <path d="M 70,130 L 70,105 L 80,105 L 80,130 Z" fill="#FFFFFF" />
    <path d="M 120,130 L 120,105 L 130,105 L 130,130 Z" fill="#FFFFFF" />
    
    <line x1="60" y1="130" x2="140" y2="130" />

    <path d="M 65,70 A 45,45 0 0,0 65,130" stroke-width="5" />

    <path d="M 135,70 A 45,45 0 0,1 135,130 L 135,70 Z" stroke-width="5" />

    <path d="M 85,55 C 85,45 115,45 115,55 C 115,65 85,65 85,75 C 85,85 115,85 115,75" stroke-width="5" />
    
  </g>
</svg>
